<?xml version="1.0" encoding="UTF-8"?>
<svg id="Layer_1" data-name="Layer 1" width="64" height="64" xmlns="http://www.w3.org/2000/svg" viewBox="0 0 682.98 713.37">
  <defs>
    <style>
      .cls-1 {
        fill: #fff;
      }

      .cls-2 {
        fill: #c2daf2;
      }

      .cls-3 {
        fill: #6a7696;
      }
    </style>
  </defs>
  <path class="cls-1" d="M21.15,56.08c2.59-.13,4.41-.3,6.22-.3,38.13-.02,76.27,.08,114.4-.12,4.88-.03,6.36,1.23,6.28,6.2-.22,15.06-.01,15.07-15.3,15.07-35.16,0-70.32-.1-105.47,.11-5.01,.03-6.59-1.52-6.21-6.35,.36-4.61,.08-9.26,.08-14.61Z"/>
  <polygon class="cls-1" points="17.98 49.49 155.98 49.49 160.98 12.18 516.98 12.18 516.98 38.91 668.98 38.91 668.98 317.18 523.98 317.18 520.98 406.18 479.98 406.18 500.98 486.18 475.98 583.18 460.98 650.18 458.98 701.18 254.52 701.18 249.98 657.18 189.98 590.18 182.98 553.18 202.48 440.18 202.48 407.18 160.98 404.18 156.98 314.18 8.98 318.18 8.98 49.49 17.98 49.49"/>
  <path class="cls-2" d="M35.98,309.67h-14.83V56.08h14.83v253.6Zm239.1,213.21V219.3h-20.55v314.88h9.25c6.24,0,11.3-5.06,11.3-11.3ZM189.98,15.21h-20.76V409.18h20.76V15.21Zm14.81,403.26l-2.04,14.96-14.3,83.74-2.04,73.53,70.47,60.77,4.94,42.83,13.78,.04-.51-46.95c2.89-16.34-7.48-22.98-7.48-22.98l-45.45-37.79c-19.91-13.28-11.23-38.3-11.23-38.3l13.5-129.86c-5.91-14.45-19.63,0-19.63,0Z"/>
  <path class="cls-3" d="M125.5,208.38c.17,6.44-4.61,10.85-12.13,10.87-19.74,.06-39.48,.07-59.22,0-7.13-.03-11.84-4.37-11.88-10.57-.03-6.14,4.74-10.52,11.86-10.59,9.87-.1,19.74-.03,29.61-.03,9.87,0,19.74-.06,29.61,.02,7.34,.06,11.99,4.09,12.15,10.3Zm496.55,10.87c7.53-.02,12.25-4.39,12.09-10.88-.15-6.2-4.8-10.24-12.13-10.3-9.68-.08-19.37-.02-29.05-.02-10.06,0-20.11-.08-30.17,.03-7.12,.08-11.88,4.46-11.84,10.61,.04,6.22,4.73,10.53,11.88,10.56,19.74,.07,39.48,.07,59.22,0Zm.1-44.99c7.5-.05,12.2-4.63,11.98-11.08-.21-6.24-4.71-10.06-12.23-10.12-9.68-.08-19.37-.02-29.05-.02-9.87,0-19.74-.06-29.61,.02-7.44,.06-12.06,3.95-12.29,10.1-.24,6.38,4.54,11.06,11.98,11.11,19.74,.13,39.48,.13,59.21,0Zm-567.93,0c19.74,.13,39.48,.13,59.22,0,7.47-.05,12.27-4.67,12.05-11.05-.21-6.25-4.72-10.09-12.22-10.16-9.68-.09-19.37-.02-29.05-.02-9.87,0-19.74-.06-29.61,.02-7.6,.06-12.42,4.3-12.34,10.62,.08,6.19,4.71,10.54,11.94,10.58Zm402.41-32.23c-17.49-.04-34.97-.01-52.46-.01-18.04,0-36.09-.03-54.13,.01-7.59,.02-12.6,4.15-12.74,10.31-.14,6.4,5,10.9,12.79,10.91,35.53,.04,71.06,.04,106.59,0,7.93,0,13-4.27,13.01-10.69,.01-6.4-5.02-10.51-13.07-10.53Zm226.33,174.01c0,11.67-3.21,14.8-15.04,14.8-31.49,.01-62.98,0-94.47,0-2.04,0-4.13,.05-6.12-.31-5.73-1.03-9.35-5.54-9.06-11,.28-5.42,4.39-9.71,10.21-9.85,10.62-.25,21.24-.12,31.86-.13,18.63-.01,37.27-.14,55.9,.09,4.53,.06,5.66-1.53,5.65-5.79-.1-66.7-.12-133.41,.03-200.11,.01-5.07-2.12-5.67-6.34-5.66-39.69,.12-79.38,.17-119.07-.05-5.3-.03-6.44,1.68-6.43,6.65,.13,98.94,.1,197.87,.1,296.81,0,13.31-3.02,16.29-16.53,16.3-5.19,0-10.38,0-16.39,0,.76,3.38,1.29,6.19,2.02,8.94,12.28,45.96,9.57,91.34-4.27,136.57-8.71,28.46-16.3,57.27-24.27,85.95-.73,2.64-.83,5.52-.84,8.28-.08,14.72,.25,29.45-.23,44.15-.13,3.93-2.64,7.78-4.05,11.67h-138.66c-3.67-3.86-5.08-8.3-2.68-13.27,2.34-4.84,6.69-5.85,11.72-5.83,35.22,.08,70.44,.05,105.66,.03,2.15,0,4.31-.19,6.97-.31,0-10.25-.11-19.9,.04-29.56,.1-6.12-.46-12.52,1.09-18.31,7.63-28.59,15.78-57.03,23.91-85.48,5.38-18.82,10.14-37.71,11.89-57.3,3.75-41.92-9.22-81.03-19.93-120.51-1.87-6.9-8.65-10.63-16.19-10.36-7.23,.26-13.09,4.47-15.16,11.15-.66,2.11-.72,4.4-1.17,6.58-1.15,5.6-5.14,8.8-10.67,8.64-5.63-.17-9.46-3.48-10.06-9.22-.41-3.88-.12-7.82-.35-11.72-.52-8.88-6.03-14.25-15.92-15.71-9.62-1.41-17.17,2.3-20.14,10.18-.83,2.21-.88,4.72-1.34,7.08-1.22,6.17-5.39,9.41-11.48,8.97-5.81-.42-9.24-4.04-9.48-10.33-.18-4.65,0-9.32-.1-13.97-.22-11.42-7.39-18.34-18.78-18.2-11.46,.14-18.43,7.07-18.7,18.41-.1,4.07-.06,8.25-.98,12.17-1.2,5.16-5.1,7.76-10.41,7.4-5.03-.34-8.28-3.32-9.25-8.26-.57-2.9-.62-5.93-.62-8.89-.04-40.62-.02-81.24-.04-121.86,0-2.79,.02-5.62-.45-8.35-1.65-9.76-10.81-15.54-20.41-13.06-8.08,2.09-12.11,8.31-12.11,18.93-.01,91.86,0,183.72-.04,275.58,0,2.77-.01,5.65-.74,8.29-1.26,4.56-4.53,7.18-9.37,7.45-4.84,.27-8.39-1.98-10.16-6.34-.87-2.14-.83-4.73-.83-7.12-.05-27.76,.01-55.53-.06-83.29-.03-10.7-6.73-18.17-16.22-18.47-9.34-.29-15.99,6.47-17.17,16.91-4.26,37.56-8.38,75.14-13.12,112.64-2.49,19.75,1.73,37.36,15.54,51.58,11.65,12,24.47,22.87,37.04,33.95,17.66,15.56,14.86,10.27,15.09,33.52,.09,8.88,.01,17.76,.01,27.24,6.66,0,12.57,.12,18.49-.04,5.15-.14,9.69,.72,12.32,5.79,2.64,5.1,.74,9.34-2.56,13.31h-45.85c-1.18-3.79-3.27-7.54-3.39-11.36-.42-13.4-.3-26.83-.08-40.24,.06-3.93-1.26-6.51-4.22-9.03-12.2-10.38-24.52-20.66-36.19-31.61-19.48-18.28-29.94-40.6-27.85-67.81,.76-9.83,2.01-19.63,3.16-29.42,4.13-35.21,8.32-70.42,12.53-106.08-8.22,0-17.31,.03-26.41,0-10.1-.05-13.79-3.72-13.81-13.86-.04-21.99-.19-43.98,.11-65.96,.07-5.5-1.19-7.3-7.04-7.26-41.55,.27-83.11,.14-124.66,.14-13.71,0-16.34-2.62-16.34-16.29,0-87.95,0-175.89,0-263.84,0-1.68-.04-3.36,.04-5.03,.34-7.19,4.07-10.96,11.21-11.1,6.52-.13,13.04-.04,19.57-.04,37.08,0,74.16-.08,111.25,.1,4.68,.02,6.25-1.36,5.94-5.99-.35-5.19,.12-10.44-.12-15.64-.27-5.8,1.82-10.13,6.86-13.02h369.02c5.03,3.54,6.8,8.39,6.49,14.47-.33,6.45-.07,12.94-.07,20.09h7.22c43.79,0,87.58,0,131.37,0,11.13,0,14.2,3.06,14.2,14.3,.02,89.06,.01,178.12,0,267.18ZM148.03,104.39c.01-4.9-1.36-6.35-6.29-6.32-37.99,.19-75.98,.22-113.96-.02-5.57-.03-6.77,1.8-6.74,7,.21,32.96,.11,65.91,.11,98.87,0,33.14,.09,66.29-.1,99.43-.03,4.85,1.3,6.35,6.27,6.32,38.17-.2,76.35-.2,114.52,0,5.08,.03,6.19-1.67,6.18-6.42-.14-66.29-.14-132.58,0-198.86Zm.02-42.53c.07-4.97-1.41-6.22-6.28-6.2-38.13,.2-76.27,.11-114.4,.12-1.81,0-3.63,.17-6.22,.3,0,5.35,.28,10-.08,14.61-.38,4.83,1.2,6.38,6.21,6.35,35.16-.21,70.31-.11,105.47-.11,15.29,0,15.07,0,15.3-15.07Zm21.16,7.19q0,7.87,7.84,7.88c107.9,0,215.81,0,323.71,0,1.49,0,3.19,.44,4.42-.13,1.48-.69,3.64-2.22,3.66-3.42,.24-17.12,.16-34.24,.16-52.5h-7.82c-61.13,0-122.25,0-183.38,0-47.15,0-94.3,0-141.45,0q-7.14,0-7.14,7.37c0,13.6,0,27.21,0,40.81Zm339.89,33.81c0-4.41-2.14-4.72-5.53-4.72-109.58,.04-219.16,.05-328.74-.05-4.4,0-5.72,1.31-5.71,5.74,.11,95.78,.12,191.56,0,287.34,0,4.51,1.44,5.64,5.76,5.6,19.56-.21,39.14-.28,58.7,.03,5.48,.09,7.25-1.13,7.22-7.01-.25-50.5-.23-101-.06-151.5,.06-17.22,12.72-32.43,29.05-35.81,17.65-3.65,35.15,4.53,42.26,20.56,2.17,4.88,4.85,5.89,9.65,5.86,29.44-.19,58.89-.21,88.33-.04,19.45,.11,32.1,12.96,32.25,32.31,.04,5.59,.03,11.18,0,16.77-.1,20.54-12.93,33.28-33.65,33.35-16.77,.05-33.55,.02-50.32,0-9.81,0-14.8-3.47-14.99-10.35-.19-7.13,4.81-10.73,15.02-10.74,16.03-.02,32.05,0,48.08,0,11.91-.01,14.69-2.85,14.7-14.93,0-3.91,.01-7.83,0-11.74-.04-10.56-3.05-13.62-13.64-13.63-28.51-.03-57.03-.02-85.54,0-1.8,0-3.61,.21-5.42,.32v77.6c23.1-7.54,41.55-2.28,54.79,17.83,21.92-9.42,40.94-6.51,56.45,12.1,.95-.48,1.62-.78,2.25-1.14,23.33-13.08,50.09-1.9,57.09,23.86,1.17,4.31,2.15,8.69,3.64,12.89,.48,1.35,2.23,3.05,3.52,3.16,4.59,.38,9.23,.15,14.32,.15,.2-1.85,.39-2.76,.39-3.66,.02-96.71,0-193.43,.1-290.14Zm152.66-46.66h-131.35v20.73c2.43,0,4.59,0,6.75,0,24.41,0,48.81,0,73.22,0,15.46,0,30.93,.09,46.39-.13,1.68-.02,4.68-1.67,4.77-2.75,.47-5.85,.23-11.77,.23-17.85Zm-355.25,75c.07,14.33,.08,28.67,0,43-.06,8.99-4.01,12.85-13.08,12.87-26.06,.04-52.12,.05-78.19,0-8.87-.02-12.63-3.7-12.69-12.53-.1-14.7-.1-29.41,0-44.12,.07-8.61,3.69-12.16,12.34-12.21,13.22-.09,26.43-.02,39.65-.02,13.03,0,26.06-.05,39.09,.02,9.06,.05,12.83,3.86,12.87,13Zm-21.07,30.05c-.25-5.75-.21-11.53-.01-17.28,.12-3.33-1-4.64-4.43-4.62-17.66,.1-35.33,.12-52.99,0-3.59-.03-4.4,1.55-4.31,4.72,.16,5.57,.29,11.17-.04,16.73-.25,4.35,1.56,5.39,5.54,5.27,2.09-.06,4.18-.09,6.27-.11,6.27-.05,12.55,.04,18.83,.04,8.74,0,17.48-.1,26.21,.04,3.48,.06,5.08-.99,4.92-4.77Zm-5.44-101.21c39.3,.07,78.61,.07,117.91,0,7.78-.01,12.23-4.13,12.18-10.76-.05-6.63-4.42-10.33-12.45-10.34-19.56-.04-39.12-.01-58.68-.01-19.56,0-39.12-.02-58.68,.01-7.79,.01-12.54,3.96-12.63,10.33-.09,6.33,4.76,10.76,12.34,10.77Z"/>
</svg>