<?xml version="1.0" encoding="utf-8"?>
<!-- Generator: Adobe Illustrator 26.0.2, SVG Export Plug-In . SVG Version: 6.00 Build 0)  -->
<svg version="1.1" xmlns="http://www.w3.org/2000/svg" xmlns:xlink="http://www.w3.org/1999/xlink" x="0px" y="0px"
	 viewBox="0 0 420.3 254.2" style="enable-background:new 0 0 420.3 254.2;" xml:space="preserve">
<style type="text/css">
	.st0{display:none;}
	.st1{display:inline;}
	.st2{fill:#004B85;}
	.st3{fill:#4B90CD;}
	.st4{fill:#F3A93C;}
	.st5{fill:#004B83;}
	.st6{fill:#498DCB;}
	.st7{fill:#F2A83E;}
</style>
<g id="Capa_1" class="st0">
	<g id="Capa_2_00000052094496777141695070000012516529456624355458_" class="st1">
		<g id="Capa_1-2">
			<path class="st2" d="M5.3,236.9V92.7c0-4.4,3.6-8,8-8l0,0h35.1c4.4,0,8,3.6,8,8v144.2c0,4.4-3.6,8-8,8H13.3
				C8.9,244.9,5.3,241.3,5.3,236.9L5.3,236.9z"/>
			<path class="st2" d="M184.6,151l58.1,89c0.9,1.4,0.5,3.4-0.9,4.3c-0.5,0.3-1.1,0.5-1.7,0.5h-50.4c-1.1,0-2.1-0.6-2.7-1.5
				l-47.5-80.8h-0.6v79.2c0,1.7-1.4,3.1-3.1,3.1l0,0H90.9c-1.7,0-3.1-1.4-3.1-3.1v-225C87.8,7.5,95.3,0,104.5,0h31.2
				c1.7,0,3.1,1.4,3.1,3.1l0,0v132.6h0.6L186.1,75c0.6-0.8,1.5-1.2,2.5-1.2h52.3c1.7,0,3.2,1.4,3.2,3.1c0,0.8-0.3,1.5-0.8,2.1
				l-58.4,68.2C183.9,148.3,183.8,149.8,184.6,151z"/>
			<path class="st3" d="M407.5,174.9H287c-2,0-3.7,1.6-3.7,3.7c0,0.3,0,0.6,0.1,0.9c4.8,17.5,20.6,27.8,39.1,27.8
				c13.3,0,22-5.1,30-14.7c0.7-0.9,1.8-1.4,2.9-1.4h44.8c2.1,0,3.7,1.7,3.7,3.7c0,0.6-0.1,1.1-0.4,1.6c-15,30.2-42.4,52.1-77,53.7
				c-48.5,2.2-90.8-35.1-94.4-83.5c-3.9-52.6,36.9-98.8,89.5-98.8c52.4,0,90.3,41.9,90.3,93.4c0,3.5-0.2,6.9-0.7,10.3
				C410.9,173.6,409.3,174.9,407.5,174.9z M321.8,111.1c-16.8,0-31.7,8.8-37.4,24.2c-0.7,1.9,0.3,4.1,2.2,4.8
				c0.4,0.1,0.8,0.2,1.2,0.2h67.8c2.1,0,3.7-1.7,3.7-3.8c0-0.4-0.1-0.8-0.2-1.2C353.5,120,338.6,111.1,321.8,111.1z"/>
			<path class="st3" d="M398,82.5c9.7-4.3,14.1-15.6,9.8-25.3v-0.1l0,0c-4.4-9.7-15.7-13.9-25.4-9.6c-0.4,0.2-0.8,0.4-1.2,0.6
				L366.4,56c-3.7,2-5.1,6.6-3.1,10.3c0.7,1.4,1.9,2.5,3.2,3.2c7.3,3.6,14.1,8.1,20.3,13.4c2.2,1.9,5.3,2.3,7.9,1.2L398,82.5z"/>
			<path class="st4" d="M30.9,0C13.8,0,0,13.8,0,30.8c0,16,12.3,29.4,28.3,30.8v13.8c0,1,0.6,2,1.5,2.4c0.3,0.1,0.7,0.2,1.1,0.2
				c0.6,0,1.3-0.2,1.8-0.7c1-0.9,23.8-21.5,28.1-38.6c0.1-0.3,0.2-0.6,0.2-1v-0.1v-0.1c3.7-16.6-6.8-33.1-23.4-36.8
				C35.3,0.3,33.1,0,30.9,0z"/>
		</g>
	</g>
	<g class="st1">
		<path class="st5" d="M409.4,230.9c-0.8-1.6-1.7-2.9-2.9-4.1c-1.3-1.2-2.7-2.1-4.5-2.7c-1.7-0.7-3.6-1-5.7-1s-3.9,0.3-5.7,1
			c-1.7,0.7-3.3,1.5-4.5,2.7c-1.3,1.2-2.3,2.5-2.9,4.1c-0.7,1.6-1.1,3.3-1.1,5.1c0,1.9,0.3,3.6,1.1,5.1c0.8,1.6,1.7,2.9,2.9,4.1
			c1.3,1.2,2.7,2.1,4.5,2.7c1.7,0.7,3.6,1,5.7,1c2,0,3.9-0.3,5.7-1c1.7-0.7,3.3-1.5,4.5-2.7c1.3-1.2,2.3-2.5,2.9-4.1
			c0.8-1.5,1.1-3.3,1.1-5.1C410.4,234.2,410,232.6,409.4,230.9z M407.2,240.4c-0.7,1.3-1.4,2.5-2.5,3.5s-2.3,1.7-3.8,2.3
			c-1.4,0.5-3.1,0.9-4.7,0.9c-1.7,0-3.3-0.2-4.7-0.9c-1.4-0.5-2.7-1.3-3.8-2.3c-1.1-1-1.9-2.2-2.5-3.5c-0.7-1.3-0.9-2.7-0.9-4.4
			c0-1.5,0.3-2.9,0.9-4.3c0.7-1.3,1.4-2.5,2.5-3.5s2.3-1.7,3.8-2.3c1.4-0.5,3.1-0.9,4.7-0.9s3.3,0.2,4.7,0.9
			c1.4,0.5,2.7,1.3,3.8,2.3c1.1,1,2,2.2,2.5,3.5s0.9,2.7,0.9,4.3C408.2,237.6,407.9,239.1,407.2,240.4z"/>
		<path class="st5" d="M402.6,233c0-0.8-0.1-1.4-0.4-2s-0.7-1-1.1-1.3s-1-0.7-1.6-0.8c-0.7-0.1-1.3-0.2-2-0.2h-6.8v14.2h2.6v-5.5
			h2.9l3.1,5.5h3.1l-3.2-5.7c1-0.2,1.7-0.8,2.4-1.4C402.4,235.1,402.6,234.1,402.6,233z M399.4,234.6c-0.4,0.3-1.1,0.4-1.7,0.4h-4
			v-4h4c0.8,0,1.3,0.2,1.7,0.5s0.7,0.9,0.7,1.5C400,233.7,399.8,234.3,399.4,234.6z"/>
	</g>
	<g class="st1">
		<path class="st5" d="M-3180.7-309.3v-205.3c0-6.3,5.1-11.4,11.4-11.4h50c6.3,0,11.4,5.1,11.4,11.4v205.3c0,6.3-5.1,11.4-11.4,11.4
			h-50C-3175.6-297.9-3180.7-303-3180.7-309.3"/>
		<path class="st5" d="M-2925.5-431.6l82.7,126.8c1.9,3-0.2,6.9-3.7,6.9h-71.7c-1.6,0-3-0.8-3.9-2.2l-67.6-115h-0.9v112.7
			c0,2.5-2,4.5-4.5,4.5h-63.9c-2.5,0-4.5-2-4.5-4.5v-320.2c0-13.2,10.7-23.9,23.9-23.9h44.5c2.5,0,4.5,2,4.5,4.5v188.8h0.9
			l66.2-86.4c0.8-1.1,2.2-1.8,3.5-1.8h74.5c3.8,0,5.9,4.5,3.4,7.4l-83.2,97.2C-2926.4-435.4-2926.5-433.2-2925.5-431.6"/>
		<path class="st6" d="M-2608.2-397.5h-171.6c-3.4,0-6,3.2-5.1,6.6c6.8,25,29.4,39.5,55.7,39.5c18.9,0,31.3-7.2,42.7-20.9
			c1-1.2,2.5-1.9,4.1-1.9h63.8c3.9,0,6.5,4.1,4.8,7.7c-21.3,43-60.4,74.2-109.6,76.5c-69,3.2-129.3-49.9-134.4-118.9
			c-5.6-74.9,52.4-140.8,127.3-140.8c74.6,0,128.6,59.7,128.6,133c0,5-0.3,9.8-1,14.7C-2603.3-399.5-2605.5-397.5-2608.2-397.5
			 M-2730.1-488.3c-23.8,0-45.1,12.6-53.2,34.5c-1.3,3.5,1.2,7.2,5,7.2h96.5c3.7,0,6.2-3.7,5-7.2
			C-2684.9-475.7-2706.2-488.3-2730.1-488.3"/>
		<path class="st6" d="M-2621.7-529c13.8-6.1,20-22.3,13.8-36.2c-6.5-14.5-23.9-20.4-37.8-12.9l-21,11.3c-7.7,4.1-7.6,15.2,0.2,19.1
			c10.4,5.2,20.1,11.6,28.8,19.1c3.1,2.7,7.5,3.3,11.3,1.6L-2621.7-529z"/>
		<path class="st7" d="M-3144.3-646.5c-24.2,0-43.9,19.7-43.9,43.9c0,23,17.7,41.9,40.2,43.8v19.7c0,1.5,0.9,2.8,2.2,3.4
			c0.5,0.2,1,0.3,1.5,0.3c0.9,0,1.8-0.3,2.5-1c1.4-1.2,33.8-30.6,40-54.9c0.1-0.5,0.2-0.9,0.3-1.4c0,0,0-0.2,0-0.2c0,0,0-0.1,0-0.1
			c0.7-3.2,1.1-6.4,1.1-9.6C-3100.4-626.8-3120.1-646.5-3144.3-646.5"/>
	</g>
	<g class="st1">
		<path class="st5" d="M-2591.9-308.4c-0.9-2-2.2-3.8-3.8-5.2c-1.6-1.5-3.5-2.6-5.7-3.5c-2.2-0.8-4.6-1.3-7.1-1.3
			c-2.6,0-4.9,0.4-7.1,1.3c-2.2,0.8-4.1,2-5.7,3.5c-1.6,1.5-2.9,3.2-3.8,5.2c-0.9,2-1.4,4.2-1.4,6.5c0,2.3,0.5,4.5,1.4,6.5
			c0.9,2,2.2,3.8,3.8,5.2c1.6,1.5,3.5,2.6,5.7,3.5c2.2,0.8,4.6,1.3,7.1,1.3c2.6,0,4.9-0.4,7.1-1.3c2.2-0.8,4.1-2,5.7-3.5
			c1.6-1.5,2.9-3.2,3.8-5.2c0.9-2,1.4-4.2,1.4-6.5C-2590.5-304.2-2591-306.4-2591.9-308.4z M-2594.5-296.3c-0.8,1.7-1.8,3.1-3.2,4.4
			c-1.4,1.2-3,2.2-4.8,2.9c-1.8,0.7-3.8,1-5.9,1c-2.2,0-4.2-0.3-6-1c-1.8-0.7-3.4-1.7-4.8-2.9c-1.4-1.2-2.4-2.7-3.2-4.4
			c-0.8-1.7-1.2-3.5-1.2-5.5c0-2,0.4-3.8,1.2-5.5c0.8-1.7,1.8-3.2,3.2-4.4c1.4-1.2,3-2.2,4.8-2.9c1.8-0.7,3.8-1,6-1
			c2.1,0,4.1,0.3,5.9,1c1.9,0.7,3.5,1.7,4.8,2.9c1.4,1.2,2.4,2.7,3.2,4.4c0.8,1.7,1.1,3.5,1.1,5.5
			C-2593.4-299.9-2593.8-298-2594.5-296.3z"/>
		<path class="st5" d="M-2600.3-305.7c0-0.9-0.2-1.8-0.5-2.4c-0.4-0.7-0.8-1.2-1.4-1.7c-0.6-0.4-1.3-0.8-2-1
			c-0.8-0.2-1.6-0.3-2.5-0.3h-8.6v18h3.3v-6.9h3.8l3.8,6.9h3.9l-4-7.3c1.3-0.3,2.3-0.9,3-1.8
			C-2600.7-303.1-2600.3-304.3-2600.3-305.7z M-2604.5-303.7c-0.6,0.4-1.4,0.6-2.3,0.6h-5.2v-5.1h5.2c0.9,0,1.7,0.2,2.3,0.6
			c0.6,0.4,0.9,1.1,0.9,1.9C-2603.7-304.7-2604-304.1-2604.5-303.7z"/>
	</g>
	<g class="st1">
		<path class="st5" d="M-3180.7-309.3v-205.3c0-6.3,5.1-11.4,11.4-11.4h50c6.3,0,11.4,5.1,11.4,11.4v205.3c0,6.3-5.1,11.4-11.4,11.4
			h-50C-3175.6-297.9-3180.7-303-3180.7-309.3"/>
		<path class="st5" d="M-2925.5-431.6l82.7,126.8c1.9,3-0.2,6.9-3.7,6.9h-71.7c-1.6,0-3-0.8-3.9-2.2l-67.6-115h-0.9v112.7
			c0,2.5-2,4.5-4.5,4.5h-63.9c-2.5,0-4.5-2-4.5-4.5v-320.2c0-13.2,10.7-23.9,23.9-23.9h44.5c2.5,0,4.5,2,4.5,4.5v188.8h0.9
			l66.2-86.4c0.8-1.1,2.2-1.8,3.5-1.8h74.5c3.8,0,5.9,4.5,3.4,7.4l-83.2,97.2C-2926.4-435.4-2926.5-433.2-2925.5-431.6"/>
		<path class="st6" d="M-2608.2-397.5h-171.6c-3.4,0-6,3.2-5.1,6.6c6.8,25,29.4,39.5,55.7,39.5c18.9,0,31.3-7.2,42.7-20.9
			c1-1.2,2.5-1.9,4.1-1.9h63.8c3.9,0,6.5,4.1,4.8,7.7c-21.3,43-60.4,74.2-109.6,76.5c-69,3.2-129.3-49.9-134.4-118.9
			c-5.6-74.9,52.4-140.8,127.3-140.8c74.6,0,128.6,59.7,128.6,133c0,5-0.3,9.8-1,14.7C-2603.3-399.5-2605.5-397.5-2608.2-397.5
			 M-2730.1-488.3c-23.8,0-45.1,12.6-53.2,34.5c-1.3,3.5,1.2,7.2,5,7.2h96.5c3.7,0,6.2-3.7,5-7.2
			C-2684.9-475.7-2706.2-488.3-2730.1-488.3"/>
		<path class="st6" d="M-2621.7-529c13.8-6.1,20-22.3,13.8-36.2c-6.5-14.5-23.9-20.4-37.8-12.9l-21,11.3c-7.7,4.1-7.6,15.2,0.2,19.1
			c10.4,5.2,20.1,11.6,28.8,19.1c3.1,2.7,7.5,3.3,11.3,1.6L-2621.7-529z"/>
		<path class="st7" d="M-3144.3-646.5c-24.2,0-43.9,19.7-43.9,43.9c0,23,17.7,41.9,40.2,43.8v19.7c0,1.5,0.9,2.8,2.2,3.4
			c0.5,0.2,1,0.3,1.5,0.3c0.9,0,1.8-0.3,2.5-1c1.4-1.2,33.8-30.6,40-54.9c0.1-0.5,0.2-0.9,0.3-1.4c0,0,0-0.2,0-0.2c0,0,0-0.1,0-0.1
			c0.7-3.2,1.1-6.4,1.1-9.6C-3100.4-626.8-3120.1-646.5-3144.3-646.5"/>
	</g>
	<g class="st1">
		<path class="st5" d="M-2591.9-308.4c-0.9-2-2.2-3.8-3.8-5.2c-1.6-1.5-3.5-2.6-5.7-3.5c-2.2-0.8-4.6-1.3-7.1-1.3
			c-2.6,0-4.9,0.4-7.1,1.3c-2.2,0.8-4.1,2-5.7,3.5c-1.6,1.5-2.9,3.2-3.8,5.2c-0.9,2-1.4,4.2-1.4,6.5c0,2.3,0.5,4.5,1.4,6.5
			c0.9,2,2.2,3.8,3.8,5.2c1.6,1.5,3.5,2.6,5.7,3.5c2.2,0.8,4.6,1.3,7.1,1.3c2.6,0,4.9-0.4,7.1-1.3c2.2-0.8,4.1-2,5.7-3.5
			c1.6-1.5,2.9-3.2,3.8-5.2c0.9-2,1.4-4.2,1.4-6.5C-2590.5-304.2-2591-306.4-2591.9-308.4z M-2594.5-296.3c-0.8,1.7-1.8,3.1-3.2,4.4
			c-1.4,1.2-3,2.2-4.8,2.9c-1.8,0.7-3.8,1-5.9,1c-2.2,0-4.2-0.3-6-1c-1.8-0.7-3.4-1.7-4.8-2.9c-1.4-1.2-2.4-2.7-3.2-4.4
			c-0.8-1.7-1.2-3.5-1.2-5.5c0-2,0.4-3.8,1.2-5.5c0.8-1.7,1.8-3.2,3.2-4.4c1.4-1.2,3-2.2,4.8-2.9c1.8-0.7,3.8-1,6-1
			c2.1,0,4.1,0.3,5.9,1c1.9,0.7,3.5,1.7,4.8,2.9c1.4,1.2,2.4,2.7,3.2,4.4c0.8,1.7,1.1,3.5,1.1,5.5
			C-2593.4-299.9-2593.8-298-2594.5-296.3z"/>
		<path class="st5" d="M-2600.3-305.7c0-0.9-0.2-1.8-0.5-2.4c-0.4-0.7-0.8-1.2-1.4-1.7c-0.6-0.4-1.3-0.8-2-1
			c-0.8-0.2-1.6-0.3-2.5-0.3h-8.6v18h3.3v-6.9h3.8l3.8,6.9h3.9l-4-7.3c1.3-0.3,2.3-0.9,3-1.8
			C-2600.7-303.1-2600.3-304.3-2600.3-305.7z M-2604.5-303.7c-0.6,0.4-1.4,0.6-2.3,0.6h-5.2v-5.1h5.2c0.9,0,1.7,0.2,2.3,0.6
			c0.6,0.4,0.9,1.1,0.9,1.9C-2603.7-304.7-2604-304.1-2604.5-303.7z"/>
	</g>
</g>
<g id="Capa_2">
	<g>
		<path class="st5" d="M5.3,236.7V92.6c0-4.4,3.6-8,8-8h35.1c4.4,0,8,3.6,8,8v144.1c0,4.4-3.6,8-8,8H13.3
			C8.9,244.7,5.3,241.1,5.3,236.7"/>
		<path class="st5" d="M184.4,150.9l58.1,89c1.4,2.1-0.1,4.8-2.6,4.8h-50.3c-1.1,0-2.1-0.6-2.7-1.5l-47.4-80.7h-0.6v79.1
			c0,1.7-1.4,3.1-3.1,3.1H90.8c-1.7,0-3.1-1.4-3.1-3.1V16.8C87.7,7.5,95.2,0,104.4,0h31.2c1.7,0,3.1,1.4,3.1,3.1v132.5h0.6L185.9,75
			c0.6-0.8,1.5-1.2,2.5-1.2h52.3c2.7,0,4.1,3.1,2.4,5.2l-58.4,68.2C183.8,148.2,183.7,149.7,184.4,150.9"/>
		<path class="st6" d="M407.1,174.8H286.7c-2.4,0-4.2,2.3-3.6,4.6c4.8,17.5,20.6,27.7,39.1,27.7c13.2,0,22-5.1,30-14.7
			c0.7-0.8,1.7-1.4,2.9-1.4h44.8c2.8,0,4.6,2.9,3.3,5.4c-14.9,30.2-42.4,52.1-76.9,53.7c-48.5,2.2-90.7-35.1-94.4-83.4
			c-3.9-52.6,36.8-98.8,89.4-98.8c52.4,0,90.2,41.9,90.2,93.3c0,3.5-0.2,6.9-0.7,10.3C410.5,173.4,409,174.8,407.1,174.8 M321.6,111
			c-16.7,0-31.7,8.8-37.3,24.2c-0.9,2.4,0.9,5,3.5,5h67.7c2.6,0,4.4-2.6,3.5-5C353.2,119.8,338.3,111,321.6,111"/>
		<path class="st6" d="M397.6,82.5c9.7-4.3,14.1-15.7,9.7-25.4c-4.6-10.1-16.8-14.3-26.6-9L366.1,56c-5.4,2.9-5.3,10.7,0.1,13.4
			c7.3,3.6,14.1,8.1,20.2,13.4c2.2,1.9,5.3,2.3,7.9,1.1L397.6,82.5z"/>
		<path class="st7" d="M30.8,0C13.8,0,0,13.8,0,30.8C0,47,12.4,60.2,28.2,61.6v13.8c0,1,0.6,2,1.6,2.4c0.3,0.2,0.7,0.2,1.1,0.2
			c0.6,0,1.3-0.2,1.7-0.7c1-0.9,23.7-21.5,28-38.6c0.1-0.3,0.2-0.6,0.2-1c0,0,0-0.1,0-0.1c0,0,0-0.1,0-0.1c0.5-2.2,0.7-4.5,0.7-6.7
			C61.7,13.8,47.8,0,30.8,0"/>
	</g>
	<g>
		<path class="st5" d="M418.6,237.3c-0.6-1.4-1.5-2.6-2.7-3.7c-1.1-1-2.5-1.8-4-2.4c-1.5-0.6-3.2-0.9-5-0.9c-1.8,0-3.5,0.3-5,0.9
			c-1.5,0.6-2.9,1.4-4,2.4c-1.1,1-2,2.3-2.7,3.7s-1,2.9-1,4.6c0,1.6,0.3,3.2,1,4.6c0.6,1.4,1.5,2.6,2.7,3.7c1.1,1,2.5,1.8,4,2.4
			c1.5,0.6,3.2,0.9,5,0.9c1.8,0,3.5-0.3,5-0.9c1.5-0.6,2.9-1.4,4-2.4c1.1-1,2-2.3,2.7-3.7c0.6-1.4,1-2.9,1-4.6
			C419.5,240.3,419.2,238.7,418.6,237.3z M416.7,245.8c-0.5,1.2-1.3,2.2-2.3,3.1c-0.9,0.9-2.1,1.6-3.4,2.1c-1.3,0.5-2.7,0.7-4.2,0.7
			c-1.5,0-2.9-0.2-4.2-0.7c-1.3-0.5-2.4-1.2-3.4-2.1c-1-0.9-1.7-1.9-2.2-3.1c-0.5-1.2-0.8-2.5-0.8-3.8c0-1.4,0.3-2.6,0.8-3.8
			c0.5-1.2,1.3-2.2,2.2-3.1c1-0.9,2.1-1.6,3.4-2.1c1.3-0.5,2.7-0.7,4.2-0.7c1.5,0,2.9,0.2,4.2,0.7c1.3,0.5,2.4,1.2,3.4,2.1
			c1,0.9,1.7,1.9,2.3,3.1c0.5,1.2,0.8,2.5,0.8,3.8C417.5,243.3,417.2,244.6,416.7,245.8z"/>
		<path class="st5" d="M412.6,239.2c0-0.7-0.1-1.2-0.4-1.7c-0.2-0.5-0.6-0.9-1-1.2c-0.4-0.3-0.9-0.5-1.4-0.7
			c-0.6-0.1-1.1-0.2-1.7-0.2h-6V248h2.3v-4.9h2.6l2.7,4.9h2.7l-2.8-5.1c0.9-0.2,1.6-0.7,2.1-1.3C412.4,241,412.6,240.2,412.6,239.2z
			 M409.7,240.6c-0.4,0.3-0.9,0.4-1.6,0.4h-3.6v-3.6h3.6c0.6,0,1.2,0.2,1.6,0.4c0.4,0.3,0.6,0.8,0.6,1.3
			C410.3,239.9,410.1,240.3,409.7,240.6z"/>
	</g>
</g>
</svg>
